<svg width="40" height="40" viewBox="0 0 40 40" fill="none" xmlns="http://www.w3.org/2000/svg">
<g clip-path="url(#clip0_27_151)">
<path d="M5 15H30V25H5V15Z" fill="#029aa9"/>
<path d="M5 10C3.67392 10 2.40215 10.5268 1.46447 11.4645C0.526784 12.4021 0 13.6739 0 15L0 25C0 26.3261 0.526784 27.5979 1.46447 28.5355C2.40215 29.4732 3.67392 30 5 30H30C31.3261 30 32.5979 29.4732 33.5355 28.5355C34.4732 27.5979 35 26.3261 35 25V15C35 13.6739 34.4732 12.4021 33.5355 11.4645C32.5979 10.5268 31.3261 10 30 10H5ZM30 12.5C30.663 12.5 31.2989 12.7634 31.7678 13.2322C32.2366 13.7011 32.5 14.337 32.5 15V25C32.5 25.663 32.2366 26.2989 31.7678 26.7678C31.2989 27.2366 30.663 27.5 30 27.5H5C4.33696 27.5 3.70107 27.2366 3.23223 26.7678C2.76339 26.2989 2.5 25.663 2.5 25V15C2.5 14.337 2.76339 13.7011 3.23223 13.2322C3.70107 12.7634 4.33696 12.5 5 12.5H30ZM40 20C40 20.9946 39.6049 21.9484 38.9017 22.6517C38.1984 23.3549 37.2446 23.75 36.25 23.75V16.25C37.2446 16.25 38.1984 16.6451 38.9017 17.3483C39.6049 18.0516 40 19.0054 40 20Z" fill="#029aa9"/>
</g>
<defs>
<clipPath id="clip0_27_151">
<rect width="40" height="40" fill="white"/>
</clipPath>
</defs>
</svg>
