<svg width="42" height="42" viewBox="0 0 42 42" fill="none" xmlns="http://www.w3.org/2000/svg">
<g filter="url(#filter0_b_27_146)">
<path d="M28.4375 17.3193C28.4375 17.6011 28.3256 17.8714 28.1263 18.0706C27.927 18.2699 27.6568 18.3818 27.375 18.3818C27.0932 18.3818 26.823 18.2699 26.6237 18.0706C26.4244 17.8714 26.3125 17.6011 26.3125 17.3193C26.3125 17.0375 26.4244 16.7673 26.6237 16.568C26.823 16.3688 27.0932 16.2568 27.375 16.2568C27.6568 16.2568 27.927 16.3688 28.1263 16.568C28.3256 16.7673 28.4375 17.0375 28.4375 17.3193ZM25.25 20.5068C25.5318 20.5068 25.802 20.3949 26.0013 20.1956C26.2006 19.9964 26.3125 19.7261 26.3125 19.4443C26.3125 19.1625 26.2006 18.8923 26.0013 18.693C25.802 18.4938 25.5318 18.3818 25.25 18.3818C24.9682 18.3818 24.698 18.4938 24.4987 18.693C24.2994 18.8923 24.1875 19.1625 24.1875 19.4443C24.1875 19.7261 24.2994 19.9964 24.4987 20.1956C24.698 20.3949 24.9682 20.5068 25.25 20.5068ZM30.5625 19.4443C30.5625 19.7261 30.4506 19.9964 30.2513 20.1956C30.052 20.3949 29.7818 20.5068 29.5 20.5068C29.2182 20.5068 28.948 20.3949 28.7487 20.1956C28.5494 19.9964 28.4375 19.7261 28.4375 19.4443C28.4375 19.1625 28.5494 18.8923 28.7487 18.693C28.948 18.4938 29.2182 18.3818 29.5 18.3818C29.7818 18.3818 30.052 18.4938 30.2513 18.693C30.4506 18.8923 30.5625 19.1625 30.5625 19.4443ZM27.375 22.6318C27.6568 22.6318 27.927 22.5199 28.1263 22.3206C28.3256 22.1214 28.4375 21.8511 28.4375 21.5693C28.4375 21.2875 28.3256 21.0173 28.1263 20.818C27.927 20.6188 27.6568 20.5068 27.375 20.5068C27.0932 20.5068 26.823 20.6188 26.6237 20.818C26.4244 21.0173 26.3125 21.2875 26.3125 21.5693C26.3125 21.8511 26.4244 22.1214 26.6237 22.3206C26.823 22.5199 27.0932 22.6318 27.375 22.6318ZM13.5625 16.2568H15.6875V18.3818H17.8125V20.5068H15.6875V22.6318H13.5625V20.5068H11.4375V18.3818H13.5625V16.2568Z" fill="#DE7EFF"/>
<path d="M10.4834 11.4394C10.4471 11.3045 10.4378 11.1637 10.4559 11.0252C10.4741 10.8867 10.5194 10.7531 10.5893 10.6321C10.6592 10.5111 10.7522 10.405 10.8632 10.3201C10.9741 10.2351 11.1006 10.1728 11.2356 10.1368L15.3411 9.03604C15.4823 8.99842 15.6297 8.99032 15.7741 9.01222C15.9185 9.03412 16.0568 9.08557 16.1805 9.16334C16.3041 9.24111 16.4104 9.34354 16.4927 9.46423C16.5749 9.58492 16.6314 9.72128 16.6586 9.86479C18.0505 9.69691 19.5274 9.61616 21 9.61616C22.53 9.61616 24.0664 9.70329 25.505 9.88391C25.5299 9.73823 25.5848 9.59933 25.6664 9.47609C25.7479 9.35285 25.8543 9.24798 25.9787 9.16819C26.1031 9.08839 26.2428 9.03543 26.3888 9.01267C26.5348 8.98992 26.684 8.99787 26.8268 9.03604L30.9323 10.1368C31.0889 10.1787 31.2339 10.256 31.3561 10.3626C31.4783 10.4692 31.5744 10.6024 31.6372 10.7519C31.7 10.9015 31.7277 11.0634 31.7182 11.2253C31.7087 11.3872 31.6623 11.5447 31.5825 11.6859C31.88 11.8772 32.1478 12.0897 32.3751 12.317C33.2421 13.184 34.0326 14.5483 34.702 16.0825C35.382 17.6402 35.9749 19.4634 36.4126 21.3228C36.8504 23.1822 37.1351 25.1053 37.1861 26.8605C37.2371 28.5945 37.0608 30.2648 36.4891 31.5568C36.2285 32.1368 35.7912 32.6197 35.2398 32.9364C34.6883 33.2532 34.0509 33.3876 33.4185 33.3205C32.067 33.1782 31.0491 32.4833 30.2034 31.6779C29.6828 31.1849 29.1494 30.5602 28.633 29.9609C28.3653 29.6464 28.1018 29.3404 27.851 29.062C26.304 27.3535 24.4574 25.8172 21 25.8172C17.5426 25.8172 15.696 27.3535 14.149 29.062C13.8961 29.3404 13.6348 29.6464 13.367 29.9609C12.8506 30.5602 12.3173 31.1828 11.7966 31.6779C10.9509 32.4854 9.93302 33.1782 8.58152 33.3205C7.94913 33.3876 7.31172 33.2532 6.76028 32.9364C6.20884 32.6197 5.77157 32.1368 5.51089 31.5568C4.93714 30.2648 4.76289 28.5924 4.81177 26.8605C4.86277 25.1053 5.15177 23.1843 5.58739 21.3228C6.02514 19.4634 6.62014 17.6402 7.29802 16.0825C7.96739 14.5483 8.75789 13.184 9.62277 12.317C9.90056 12.0446 10.2094 11.8056 10.5429 11.6052C10.5184 11.551 10.4985 11.4969 10.4834 11.4394ZM14.8099 12.3149C12.9463 12.708 11.6883 13.2563 11.1273 13.8194C10.5408 14.4059 9.87989 15.4833 9.24664 16.9325C8.57485 18.5084 8.04296 20.1403 7.65714 21.8094C7.24956 23.4858 7.00827 25.1984 6.93677 26.9222C6.89002 28.5265 7.06852 29.8292 7.45314 30.6962C7.53191 30.865 7.66156 31.005 7.8239 31.0965C7.98625 31.1879 8.17315 31.2263 8.35839 31.2062C9.05327 31.1339 9.65464 30.7833 10.3325 30.1394C10.783 29.7102 11.1825 29.2405 11.6394 28.7072C11.922 28.3757 12.2259 28.0208 12.5744 27.6362C14.3296 25.696 16.7033 23.6943 21 23.6943C25.2968 23.6943 27.6704 25.696 29.4256 27.6362C29.7741 28.0208 30.078 28.3757 30.3606 28.7072C30.8154 29.2405 31.217 29.7102 31.6675 30.1394C32.3433 30.7833 32.9446 31.1339 33.6416 31.2083C33.8271 31.2282 34.0142 31.1896 34.1766 31.0977C34.3389 31.0059 34.4685 30.8654 34.5469 30.6962C34.9294 29.8292 35.11 28.5287 35.0633 26.9222C34.9917 25.1984 34.7504 23.4859 34.3429 21.8094C33.957 20.1403 33.4251 18.5084 32.7534 16.9325C32.1201 15.4833 31.4571 14.4038 30.8728 13.8194C30.3118 13.2563 29.0538 12.708 27.1901 12.3149C25.3839 11.9345 23.2015 11.7412 21 11.7412C18.7985 11.7412 16.6161 11.9345 14.8099 12.3149Z" fill="#DE7EFF"/>
</g>
<defs>
<filter id="filter0_b_27_146" x="-20" y="-20" width="82" height="82" filterUnits="userSpaceOnUse" color-interpolation-filters="sRGB">
<feFlood flood-opacity="0" result="BackgroundImageFix"/>
<feGaussianBlur in="BackgroundImageFix" stdDeviation="10"/>
<feComposite in2="SourceAlpha" operator="in" result="effect1_backgroundBlur_27_146"/>
<feBlend mode="normal" in="SourceGraphic" in2="effect1_backgroundBlur_27_146" result="shape"/>
</filter>
</defs>
</svg>
